<svg width="46" height="22" viewBox="0 0 46 22" fill="none" xmlns="http://www.w3.org/2000/svg">
<path d="M45.5 11C45.5002 13.0768 44.8844 15.107 43.7307 16.8339C42.5769 18.5607 40.937 19.9067 39.0183 20.7015C37.0996 21.4962 34.9883 21.7042 32.9514 21.299C30.9145 20.8938 29.0435 19.8936 27.575 18.425L27.5131 18.3594L16.2725 5.66563C15.2201 4.62555 13.8836 3.91999 12.4312 3.63773C10.9788 3.35547 9.4753 3.50913 8.10999 4.07937C6.74468 4.6496 5.57854 5.61094 4.75833 6.84239C3.93811 8.07384 3.50047 9.52039 3.50047 11C3.50047 12.4796 3.93811 13.9262 4.75833 15.1576C5.57854 16.3891 6.74468 17.3504 8.10999 17.9206C9.4753 18.4909 10.9788 18.6445 12.4312 18.3623C13.8836 18.08 15.2201 17.3744 16.2725 16.3344L17.87 14.5306C18.0006 14.3829 18.1591 14.2623 18.3363 14.1758C18.5135 14.0893 18.706 14.0386 18.9029 14.0265C19.0997 14.0144 19.297 14.0412 19.4835 14.1053C19.6699 14.1694 19.842 14.2697 19.9897 14.4003C20.1374 14.5309 20.258 14.6894 20.3445 14.8666C20.431 15.0438 20.4818 15.2363 20.4939 15.4332C20.506 15.63 20.4792 15.8273 20.415 16.0138C20.3509 16.2002 20.2506 16.3723 20.12 16.52L18.4906 18.3594L18.4288 18.425C16.9603 19.8933 15.0893 20.8933 13.0526 21.2983C11.0158 21.7034 8.90465 21.4954 6.98609 20.7006C5.06753 19.9059 3.42772 18.5601 2.27401 16.8334C1.1203 15.1067 0.504517 13.0767 0.504517 11C0.504517 8.92334 1.1203 6.89332 2.27401 5.16662C3.42772 3.43993 5.06753 2.09412 6.98609 1.29937C8.90465 0.504615 11.0158 0.296618 13.0526 0.701676C15.0893 1.10673 16.9603 2.10666 18.4288 3.575L18.4906 3.64062L29.7313 16.3344C30.7836 17.3744 32.1201 18.08 33.5726 18.3623C35.025 18.6445 36.5285 18.4909 37.8938 17.9206C39.2591 17.3504 40.4252 16.3891 41.2454 15.1576C42.0657 13.9262 42.5033 12.4796 42.5033 11C42.5033 9.52039 42.0657 8.07384 41.2454 6.84239C40.4252 5.61094 39.2591 4.6496 37.8938 4.07937C36.5285 3.50913 35.025 3.35547 33.5726 3.63773C32.1201 3.91999 30.7836 4.62555 29.7313 5.66563L28.1338 7.46937C27.8699 7.76774 27.4984 7.94909 27.1009 7.97353C26.7034 7.99797 26.3124 7.86349 26.0141 7.59969C25.7157 7.33588 25.5344 6.96435 25.5099 6.56683C25.4855 6.16931 25.6199 5.77837 25.8838 5.48L27.5131 3.64062L27.575 3.575C29.0435 2.1064 30.9145 1.10625 32.9514 0.701038C34.9883 0.29583 37.0996 0.503767 39.0183 1.29855C40.937 2.09333 42.5769 3.43926 43.7307 5.16612C44.8844 6.89297 45.5002 8.92319 45.5 11Z" fill="#82BC4F"/>
</svg>
